<svg width="100%" height="100%" viewBox="0 0 456 78" fill="inherit" xmlns="http://www.w3.org/2000/svg">
<path d="M95.5352 46.8496H104.295C104.119 49.7207 103.328 52.2695 101.922 54.4961C100.535 56.7227 98.5918 58.4609 96.0918 59.7109C93.6113 60.9609 90.623 61.5859 87.127 61.5859C84.3926 61.5859 81.9414 61.1172 79.7734 60.1797C77.6055 59.2227 75.75 57.8555 74.207 56.0781C72.6836 54.3008 71.5215 52.1523 70.7207 49.6328C69.9199 47.1133 69.5195 44.291 69.5195 41.166V38.207C69.5195 35.082 69.9297 32.2598 70.75 29.7402C71.5898 27.2012 72.7812 25.043 74.3242 23.2656C75.8867 21.4883 77.752 20.1211 79.9199 19.1641C82.0879 18.207 84.5098 17.7285 87.1855 17.7285C90.7402 17.7285 93.7383 18.373 96.1797 19.6621C98.6406 20.9512 100.545 22.7285 101.893 24.9941C103.26 27.2598 104.08 29.8379 104.354 32.7285H95.5645C95.4668 31.0098 95.125 29.5547 94.5391 28.3633C93.9531 27.1523 93.0645 26.2441 91.873 25.6387C90.7012 25.0137 89.1387 24.7012 87.1855 24.7012C85.7207 24.7012 84.4414 24.9746 83.3477 25.5215C82.2539 26.0684 81.3359 26.8984 80.5938 28.0117C79.8516 29.125 79.2949 30.5312 78.9238 32.2305C78.5723 33.9102 78.3965 35.8828 78.3965 38.1484V41.166C78.3965 43.373 78.5625 45.3164 78.8945 46.9961C79.2266 48.6562 79.7344 50.0625 80.418 51.2148C81.1211 52.3477 82.0195 53.207 83.1133 53.793C84.2266 54.3594 85.5645 54.6426 87.127 54.6426C88.9629 54.6426 90.4766 54.3496 91.668 53.7637C92.8594 53.1777 93.7676 52.3086 94.3926 51.1562C95.0371 50.0039 95.418 48.5684 95.5352 46.8496ZM108.191 45.4727V44.8574C108.191 42.5332 108.523 40.3945 109.188 38.4414C109.852 36.4688 110.818 34.7598 112.088 33.3145C113.357 31.8691 114.92 30.7461 116.775 29.9453C118.631 29.125 120.76 28.7148 123.162 28.7148C125.564 28.7148 127.703 29.125 129.578 29.9453C131.453 30.7461 133.025 31.8691 134.295 33.3145C135.584 34.7598 136.561 36.4688 137.225 38.4414C137.889 40.3945 138.221 42.5332 138.221 44.8574V45.4727C138.221 47.7773 137.889 49.916 137.225 51.8887C136.561 53.8418 135.584 55.5508 134.295 57.0156C133.025 58.4609 131.463 59.584 129.607 60.3848C127.752 61.1855 125.623 61.5859 123.221 61.5859C120.818 61.5859 118.68 61.1855 116.805 60.3848C114.949 59.584 113.377 58.4609 112.088 57.0156C110.818 55.5508 109.852 53.8418 109.188 51.8887C108.523 49.916 108.191 47.7773 108.191 45.4727ZM116.629 44.8574V45.4727C116.629 46.8008 116.746 48.041 116.98 49.1934C117.215 50.3457 117.586 51.3613 118.094 52.2402C118.621 53.0996 119.305 53.7734 120.145 54.2617C120.984 54.75 122.01 54.9941 123.221 54.9941C124.393 54.9941 125.398 54.75 126.238 54.2617C127.078 53.7734 127.752 53.0996 128.26 52.2402C128.768 51.3613 129.139 50.3457 129.373 49.1934C129.627 48.041 129.754 46.8008 129.754 45.4727V44.8574C129.754 43.5684 129.627 42.3574 129.373 41.2246C129.139 40.0723 128.758 39.0566 128.23 38.1777C127.723 37.2793 127.049 36.5762 126.209 36.0684C125.369 35.5605 124.354 35.3066 123.162 35.3066C121.971 35.3066 120.955 35.5605 120.115 36.0684C119.295 36.5762 118.621 37.2793 118.094 38.1777C117.586 39.0566 117.215 40.0723 116.98 41.2246C116.746 42.3574 116.629 43.5684 116.629 44.8574ZM162.127 54.0859V16H170.623V61H162.977L162.127 54.0859ZM142.088 45.5312V44.916C142.088 42.4941 142.361 40.2969 142.908 38.3242C143.455 36.332 144.256 34.623 145.311 33.1973C146.365 31.7715 147.664 30.668 149.207 29.8867C150.75 29.1055 152.508 28.7148 154.48 28.7148C156.336 28.7148 157.957 29.1055 159.344 29.8867C160.75 30.668 161.941 31.7812 162.918 33.2266C163.914 34.6523 164.715 36.3418 165.32 38.2949C165.926 40.2285 166.365 42.3477 166.639 44.6523V46C166.365 48.207 165.926 50.2578 165.32 52.1523C164.715 54.0469 163.914 55.707 162.918 57.1328C161.941 58.5391 160.75 59.6328 159.344 60.4141C157.938 61.1953 156.297 61.5859 154.422 61.5859C152.449 61.5859 150.691 61.1855 149.148 60.3848C147.625 59.584 146.336 58.4609 145.281 57.0156C144.246 55.5703 143.455 53.8711 142.908 51.918C142.361 49.9648 142.088 47.8359 142.088 45.5312ZM150.525 44.916V45.5312C150.525 46.8398 150.623 48.0605 150.818 49.1934C151.033 50.3262 151.375 51.332 151.844 52.2109C152.332 53.0703 152.957 53.7441 153.719 54.2324C154.5 54.7012 155.447 54.9355 156.561 54.9355C158.006 54.9355 159.197 54.6133 160.135 53.9688C161.072 53.3047 161.785 52.3965 162.273 51.2441C162.781 50.0918 163.074 48.7637 163.152 47.2598V43.4219C163.094 42.1914 162.918 41.0879 162.625 40.1113C162.352 39.1152 161.941 38.2656 161.395 37.5625C160.867 36.8594 160.203 36.3125 159.402 35.9219C158.621 35.5312 157.693 35.3359 156.619 35.3359C155.525 35.3359 154.588 35.5898 153.807 36.0977C153.025 36.5859 152.391 37.2598 151.902 38.1191C151.434 38.9785 151.082 39.9941 150.848 41.166C150.633 42.3184 150.525 43.5684 150.525 44.916ZM191.805 61.5859C189.344 61.5859 187.137 61.1953 185.184 60.4141C183.23 59.6133 181.57 58.5098 180.203 57.1035C178.855 55.6973 177.82 54.0664 177.098 52.2109C176.375 50.3359 176.014 48.3438 176.014 46.2344V45.0625C176.014 42.6602 176.355 40.4629 177.039 38.4707C177.723 36.4785 178.699 34.75 179.969 33.2852C181.258 31.8203 182.82 30.6973 184.656 29.916C186.492 29.1152 188.562 28.7148 190.867 28.7148C193.113 28.7148 195.105 29.0859 196.844 29.8281C198.582 30.5703 200.037 31.625 201.209 32.9922C202.4 34.3594 203.299 36 203.904 37.9141C204.51 39.8086 204.812 41.918 204.812 44.2422V47.7578H179.617V42.1328H196.521V41.4883C196.521 40.3164 196.307 39.2715 195.877 38.3535C195.467 37.416 194.842 36.6738 194.002 36.127C193.162 35.5801 192.088 35.3066 190.779 35.3066C189.666 35.3066 188.709 35.5508 187.908 36.0391C187.107 36.5273 186.453 37.2109 185.945 38.0898C185.457 38.9688 185.086 40.0039 184.832 41.1953C184.598 42.3672 184.48 43.6562 184.48 45.0625V46.2344C184.48 47.5039 184.656 48.6758 185.008 49.75C185.379 50.8242 185.896 51.752 186.561 52.5332C187.244 53.3145 188.064 53.9199 189.021 54.3496C189.998 54.7793 191.102 54.9941 192.332 54.9941C193.855 54.9941 195.271 54.7012 196.58 54.1152C197.908 53.5098 199.051 52.6016 200.008 51.3906L204.109 55.8438C203.445 56.8008 202.537 57.7188 201.385 58.5977C200.252 59.4766 198.885 60.1992 197.283 60.7656C195.682 61.3125 193.855 61.5859 191.805 61.5859ZM253.533 35.7168V42.5723H231.268V35.7168H253.533ZM233.875 18.3438V61H225.086V18.3438H233.875ZM259.803 18.3438V61H251.043V18.3438H259.803ZM281.512 61.5859C279.051 61.5859 276.844 61.1953 274.891 60.4141C272.938 59.6133 271.277 58.5098 269.91 57.1035C268.562 55.6973 267.527 54.0664 266.805 52.2109C266.082 50.3359 265.721 48.3438 265.721 46.2344V45.0625C265.721 42.6602 266.062 40.4629 266.746 38.4707C267.43 36.4785 268.406 34.75 269.676 33.2852C270.965 31.8203 272.527 30.6973 274.363 29.916C276.199 29.1152 278.27 28.7148 280.574 28.7148C282.82 28.7148 284.812 29.0859 286.551 29.8281C288.289 30.5703 289.744 31.625 290.916 32.9922C292.107 34.3594 293.006 36 293.611 37.9141C294.217 39.8086 294.52 41.918 294.52 44.2422V47.7578H269.324V42.1328H286.229V41.4883C286.229 40.3164 286.014 39.2715 285.584 38.3535C285.174 37.416 284.549 36.6738 283.709 36.127C282.869 35.5801 281.795 35.3066 280.486 35.3066C279.373 35.3066 278.416 35.5508 277.615 36.0391C276.814 36.5273 276.16 37.2109 275.652 38.0898C275.164 38.9688 274.793 40.0039 274.539 41.1953C274.305 42.3672 274.188 43.6562 274.188 45.0625V46.2344C274.188 47.5039 274.363 48.6758 274.715 49.75C275.086 50.8242 275.604 51.752 276.268 52.5332C276.951 53.3145 277.771 53.9199 278.729 54.3496C279.705 54.7793 280.809 54.9941 282.039 54.9941C283.562 54.9941 284.979 54.7012 286.287 54.1152C287.615 53.5098 288.758 52.6016 289.715 51.3906L293.816 55.8438C293.152 56.8008 292.244 57.7188 291.092 58.5977C289.959 59.4766 288.592 60.1992 286.99 60.7656C285.389 61.3125 283.562 61.5859 281.512 61.5859ZM308.23 16V61H299.764V16H308.23ZM323.641 35.3945V73.1875H315.203V29.3008H323.025L323.641 35.3945ZM343.709 44.7988V45.4141C343.709 47.7188 343.436 49.8574 342.889 51.8301C342.361 53.8027 341.58 55.5215 340.545 56.9863C339.51 58.4316 338.221 59.5645 336.678 60.3848C335.154 61.1855 333.396 61.5859 331.404 61.5859C329.471 61.5859 327.791 61.1953 326.365 60.4141C324.939 59.6328 323.738 58.5391 322.762 57.1328C321.805 55.707 321.033 54.0566 320.447 52.1816C319.861 50.3066 319.412 48.2949 319.1 46.1465V44.5352C319.412 42.2305 319.861 40.1211 320.447 38.207C321.033 36.2734 321.805 34.6035 322.762 33.1973C323.738 31.7715 324.93 30.668 326.336 29.8867C327.762 29.1055 329.432 28.7148 331.346 28.7148C333.357 28.7148 335.125 29.0957 336.648 29.8574C338.191 30.6191 339.48 31.7129 340.516 33.1387C341.57 34.5645 342.361 36.2637 342.889 38.2363C343.436 40.209 343.709 42.3965 343.709 44.7988ZM335.242 45.4141V44.7988C335.242 43.4512 335.125 42.2109 334.891 41.0781C334.676 39.9258 334.324 38.9199 333.836 38.0605C333.367 37.2012 332.742 36.5371 331.961 36.0684C331.199 35.5801 330.271 35.3359 329.178 35.3359C328.025 35.3359 327.039 35.5215 326.219 35.8926C325.418 36.2637 324.764 36.8008 324.256 37.5039C323.748 38.207 323.367 39.0469 323.113 40.0234C322.859 41 322.703 42.1035 322.645 43.334V47.4062C322.742 48.8516 323.016 50.1504 323.465 51.3027C323.914 52.4355 324.607 53.334 325.545 53.998C326.482 54.6621 327.713 54.9941 329.236 54.9941C330.35 54.9941 331.287 54.75 332.049 54.2617C332.811 53.7539 333.426 53.0605 333.895 52.1816C334.383 51.3027 334.725 50.2871 334.92 49.1348C335.135 47.9824 335.242 46.7422 335.242 45.4141Z" fill="inherit"/>
<path fill-rule="evenodd" clip-rule="evenodd" d="M413.435 65.4219L455.435 41.1732L413.435 16.9245V22.698L445.435 41.1732L413.435 59.6484V65.4219Z" fill="inherit"/>
<path fill-rule="evenodd" clip-rule="evenodd" d="M42 16L0 40.2487L42 64.4974L42 58.7239L10 40.2487L42 21.7735L42 16Z" fill="inherit"/>
<line x1="366.636" y1="76.8277" x2="392.682" y2="1.1862" stroke="inherit" stroke-width="5"/>
</svg>
